<svg width="276" height="330" viewBox="0 0 276 330" fill="none" xmlns="http://www.w3.org/2000/svg">
<mask id="path-1-inside-1_1_944" fill="white">
<path fill-rule="evenodd" clip-rule="evenodd" d="M139.791 1.2784C139.056 -0.201687 136.944 -0.201685 136.209 1.2784L131.072 11.6174H12C5.37258 11.6174 0 16.99 0 23.6174V318C0 324.627 5.37258 330 12 330H264C270.627 330 276 324.627 276 318V23.6174C276 16.99 270.627 11.6174 264 11.6174H144.928L139.791 1.2784Z"/>
</mask>
<path fill-rule="evenodd" clip-rule="evenodd" d="M139.791 1.2784C139.056 -0.201687 136.944 -0.201685 136.209 1.2784L131.072 11.6174H12C5.37258 11.6174 0 16.99 0 23.6174V318C0 324.627 5.37258 330 12 330H264C270.627 330 276 324.627 276 318V23.6174C276 16.99 270.627 11.6174 264 11.6174H144.928L139.791 1.2784Z" fill="white"/>
<path d="M136.209 1.2784L137.104 1.72337L137.104 1.72336L136.209 1.2784ZM139.791 1.2784L140.687 0.833429L140.687 0.833427L139.791 1.2784ZM131.072 11.6174V12.6174H131.692L131.967 12.0624L131.072 11.6174ZM144.928 11.6174L144.033 12.0624L144.308 12.6174H144.928V11.6174ZM137.104 1.72336C137.472 0.983333 138.528 0.983317 138.896 1.72337L140.687 0.833427C139.584 -1.38669 136.416 -1.3867 135.313 0.833436L137.104 1.72336ZM131.967 12.0624L137.104 1.72337L135.313 0.833431L130.176 11.1724L131.967 12.0624ZM12 12.6174H131.072V10.6174H12V12.6174ZM1 23.6174C1 17.5423 5.92487 12.6174 12 12.6174V10.6174C4.8203 10.6174 -1 16.4377 -1 23.6174H1ZM1 318V23.6174H-1V318H1ZM12 329C5.92487 329 1 324.075 1 318H-1C-1 325.18 4.8203 331 12 331V329ZM264 329H12V331H264V329ZM275 318C275 324.075 270.075 329 264 329V331C271.18 331 277 325.18 277 318H275ZM275 23.6174V318H277V23.6174H275ZM264 12.6174C270.075 12.6174 275 17.5423 275 23.6174H277C277 16.4377 271.18 10.6174 264 10.6174V12.6174ZM144.928 12.6174H264V10.6174H144.928V12.6174ZM138.896 1.72337L144.033 12.0624L145.824 11.1724L140.687 0.833429L138.896 1.72337Z" fill="#3470FF" mask="url(#path-1-inside-1_1_944)"/>
</svg>
